# xmcd CD database file
#
# Track frame offsets:
#	150
#	19374
#	30700
#	42284
#	55425
#	68236
#	79913
#	91951
#	111924
#	125060
#	143998
#	160977
#	171968
#	195367
#	208796
#	227136
#	238572
#	253993
#	266339
#	283935
#	296381
#
# Disc length: 4320 seconds
#
# Revision: 0
# Processed by: cddbd v1.5.2PL0 Copyright (c) Steve Scherf et al.
# Submitted via: CDex 1.51
#
DISCID=4110de15
DTITLE=Toots Thielemans - Yesterday and Today [CD1)
DYEAR=2012
DGENRE=Jazz
TTITLE0=Jazz Band Ball
TTITLE1=Crazy Bop
TTITLE2=It Had To Be 'Bird'
TTITLE3=Nalen Boogie
TTITLE4=Red Devils Boogie
TTITLE5=Dynamite
TTITLE6=Love Is Just Around The Corner
TTITLE7=Caravan
TTITLE8=Cool and Easy
TTITLE9=The Cuckoo In The Clock
TTITLE10=Early Autumn
TTITLE11=Hot Toddy
TTITLE12=Lullaby Of Jazzland
TTITLE13=Melancholic Harmonica
TTITLE14=Soul Bird: Tin Tin Deo
TTITLE15=Yesterday And Today
TTITLE16=Cherokee
TTITLE17=O Susannah
TTITLE18=Please Send Me Someone To Love
TTITLE19=Barquinho
TTITLE20=Mr. Nashville
EXTD=YEAR: 2012
EXTT0=
EXTT1=
EXTT2=
EXTT3=
EXTT4=
EXTT5=
EXTT6=
EXTT7=
EXTT8=
EXTT9=
EXTT10=
EXTT11=
EXTT12=
EXTT13=
EXTT14=
EXTT15=
EXTT16=
EXTT17=
EXTT18=
EXTT19=
EXTT20=
PLAYORDER=
